<?xml version="1.0" encoding="utf-8"?>
<!-- Generator: Adobe Illustrator 22.1.0, SVG Export Plug-In . SVG Version: 6.00 Build 0)  -->
<svg version="1.1" id="Layer_1" xmlns="http://www.w3.org/2000/svg" xmlns:xlink="http://www.w3.org/1999/xlink" x="0px" y="0px"
	 viewBox="0 0 682.7 682.7" style="enable-background:new 0 0 682.7 682.7;" xml:space="preserve">
<style type="text/css">
	.st0{clip-path:url(#SVGID_2_);}
	.st1{fill:#78C14F;}
</style>
<g>
	<defs>
		<rect id="SVGID_1_" y="0" width="682.7" height="682.7"/>
	</defs>
	<clipPath id="SVGID_2_">
		<use xlink:href="#SVGID_1_"  style="overflow:visible;"/>
	</clipPath>
	<g transform="matrix(1.33333 0 0 -1.33333 0 682.667)" class="st0">
		<path class="st1" d="M393.6,436.7c0,0,13.1,12.6,33.6-7.5c21.2-20.8,8.6-35.1,8.6-35.1L253.3,211.6l-42.6,42.2L393.6,436.7z"/>
		<path class="st1" d="M391.9,282.2c2-9.3,3.1-19,3.1-28.8c0.3-77.4-62.1-140.4-139.5-140.7c-77.4-0.3-140.4,62.1-140.7,139.5
			c-0.3,77.4,62.2,140.4,139.5,140.7c11.8,0,23.3-1.4,34.3-4.1l43.5,43.5c-23.6,10.2-49.6,15.9-77,15.8
			c-106-0.4-191.6-86.8-191.2-192.8c0.4-106,86.8-191.6,192.8-191.2c106,0.4,191.6,86.8,191.2,192.8c-0.1,24.1-4.7,47.2-12.9,68.5
			L391.9,282.2z"/>
	</g>
</g>
</svg>
